<svg height="512.00003pt" viewBox="0 0 512.00003 512.00003" width="512.00003pt" xmlns="http://www.w3.org/2000/svg"><path d="m503.464844 256c0 136.671875-110.792969 247.464844-247.464844 247.464844-4.265625 0-8.535156-.082032-12.714844-.339844h-.171875c-131.441406-6.910156-234.472656-115.503906-234.472656-247.125s103.03125-240.214844 234.472656-247.125h.171875c4.179688-.257812 8.449219-.339844 12.714844-.339844 136.671875 0 247.464844 110.792969 247.464844 247.464844zm0 0" fill="#00695c"/><path d="m477.867188 256c-.003907 131.664062-103.097657 240.269531-234.582032 247.125h-.171875c-131.441406-6.910156-234.472656-115.503906-234.472656-247.125s103.03125-240.214844 234.472656-247.125h.171875c131.484375 6.855469 234.578125 115.460938 234.582032 247.125zm0 0" fill="#009688"/><path d="m408.832031 119.894531c-15.179687-4.605469-30.84375-7.441406-46.675781-8.449219-36.703125-30.773437-83.089844-47.605468-130.988281-47.53125-9.253907-.039062-18.492188.617188-27.648438 1.964844 3.15625-3.5 6.484375-6.914062 9.898438-10.15625 13.992187-3.023437 28.265625-4.542968 42.582031-4.523437 58.429688-.039063 114.070312 24.972656 152.832031 68.695312zm0 0" fill="#d84315"/><path d="m362.15625 111.445312c-4.695312-.339843-9.558594-.511718-14.421875-.511718-26.328125-.050782-52.429687 4.8125-76.972656 14.335937h-.085938c-11.160156 4.28125-21.925781 9.535157-32.167969 15.699219-8.742187 5.195312-17.101562 11.011719-25.003906 17.410156h-.085937c-27.886719 22.589844-49.707031 51.769532-63.488281 84.90625-1.453126-9.265625-2.308594-18.613281-2.558594-27.988281-.988282-39.207031 8.875-77.921875 28.5-111.871094 2.5625-4.4375 5.292968-8.792969 8.109375-13.058593 5.894531-8.636719 12.425781-16.824219 19.539062-24.488282 9.15625-1.347656 18.394531-2.003906 27.648438-1.964844 47.898437-.074218 94.285156 16.757813 130.988281 47.53125zm0 0" fill="#ff5722"/><path d="m460.800781 256c.015625 22.140625-3.585937 44.132812-10.667969 65.109375-3.59375-15.210937-8.859374-29.976563-15.699218-44.03125-2.304688-4.523437-4.695313-9.132813-7.253906-13.570313l-.769532-1.277343c-13.027344-22.304688-30.035156-42.027344-50.175781-58.199219v-.085938c-42.957031-34.414062-97.457031-51.085937-152.320313-46.589843-3.5.253906-6.910156.597656-10.410156 1.023437.683594-.511718 1.367188-1.109375 2.046875-1.535156 16.683594-13.238281 35.265625-23.882812 55.125-31.574219h.085938c19.179687-7.488281 39.371093-12.0625 59.90625-13.566406 5.628906-.515625 11.347656-.769531 17.066406-.769531 20.695313-.054688 41.285156 2.964844 61.097656 8.960937h.085938c33.457031 37.433594 51.929687 85.898438 51.882812 136.105469zm0 0" fill="#fdd834"/><path d="m426.496094 256c0 2.046875 0 4.179688-.085938 6.230469-13.027344-22.304688-30.035156-42.027344-50.175781-58.199219v-.085938c-42.957031-34.414062-97.457031-51.085937-152.320313-46.589843-2.773437-.34375-5.566406-.515625-8.363281-.511719 16.683594-13.238281 35.265625-23.882812 55.125-31.574219h.085938c19.179687-7.488281 39.371093-12.0625 59.90625-13.566406 14.878906 1.09375 29.589843 3.84375 43.859375 8.191406h.085937c33.457031 37.433594 51.933594 85.898438 51.882813 136.105469zm0 0" fill="#ffeb3a"/><path d="m450.132812 321.109375v.085937c-23.375 69.226563-81.765624 120.828126-153.34375 135.507813 14.855469-14.15625 27.613282-30.363281 37.886719-48.128906 2.730469-4.777344 5.292969-9.554688 7.597657-14.417969 34.820312-72.855469 25.785156-159.09375-23.382813-223.148438 20.714844 7.921876 40.066406 19.035157 57.34375 32.9375v.085938c10.605469 8.46875 20.351563 17.957031 29.097656 28.332031 8.164063 9.734375 15.472657 20.15625 21.847657 31.144531 2.558593 4.4375 4.949218 9.046876 7.253906 13.570313 6.839844 14.054687 12.105468 28.820313 15.699218 44.03125zm0 0" fill="#1566c0"/><path d="m435.199219 281.601562v8.53125c-17.945313 48.4375-50.394531 90.15625-92.925781 119.46875 18.753906-38.96875 25.183593-82.726562 18.429687-125.441406-5.460937-35.242187-14.335937-76.289062-36.4375-104.960937 21.511719 8.316406 41.648437 19.824219 59.734375 34.132812l8.535156 8.535157c6.585938 4.710937 12.351563 10.476562 17.066406 17.066406 1.875 3.414062 6.824219 13.652344 8.53125 17.066406 6.996094 14.335938 13.484376 10.582031 17.066407 25.601562zm0 0" fill="#2296f3"/><path d="m297.128906 353.621094c-17.273437 13.910156-36.585937 25.074218-57.257812 33.109375-24.582032 9.484375-50.707032 14.34375-77.054688 14.335937-5.207031 0-10.324218-.171875-15.359375-.597656-14.820312-1.085938-29.488281-3.6875-43.777343-7.765625h-.085938c-48.703125-54.214844-64.890625-130.242187-42.496094-199.59375 16.820313 67.671875 65.578125 122.894531 130.644532 147.96875 33.539062 12.890625 69.761718 17.203125 105.386718 12.542969zm0 0" fill="#e91e63"/><path d="m360.703125 268.714844c-13.78125 33.160156-35.636719 62.34375-63.574219 84.90625-35.625 4.660156-71.847656.347656-105.386718-12.542969-22.003907-28.523437-36.394532-62.175781-41.8125-97.792969 13.78125-33.136718 35.601562-62.316406 63.488281-84.90625h.085937c35.632813-4.671875 71.867188-.332031 105.386719 12.628906 21.9375 28.53125 36.316406 62.140626 41.8125 97.707032zm0 0" fill="#009688"/><path d="m175.871094 103.425781c-43.113282 75.167969-36.855469 168.882813 15.871094 237.652344-65.066407-25.074219-113.824219-80.296875-130.644532-147.96875 22.628906-69.691406 80.671875-122.046875 152.320313-137.386719-11.035157 10.453125-20.90625 22.066406-29.4375 34.644532-2.816407 4.265624-5.546875 8.621093-8.109375 13.058593zm0 0" fill="#f44335"/><path d="m334.675781 408.574219c-10.273437 17.765625-23.03125 33.972656-37.886719 48.128906-13.421874 2.753906-27.089843 4.125-40.789062 4.097656-58.15625.042969-113.570312-24.726562-152.320312-68.097656 14.289062 4.078125 28.957031 6.679687 43.777343 7.765625 5.035157.425781 10.152344.597656 15.359375.597656 26.347656.007813 52.472656-4.851562 77.054688-14.335937 54.695312-21.199219 98.347656-63.835938 120.832031-118.015625 7.617187 48.226562-1.570313 97.605468-26.027344 139.859375zm0 0" fill="#6a1b9a"/><path d="m256 0c-141.386719 0-256 114.613281-256 256s114.613281 256 256 256 256-114.613281 256-256c-.160156-141.320312-114.679688-255.839844-256-256zm0 494.933594c-131.960938 0-238.933594-106.972656-238.933594-238.933594s106.972656-238.933594 238.933594-238.933594 238.933594 106.972656 238.933594 238.933594c-.152344 131.898438-107.035156 238.78125-238.933594 238.933594zm0 0"/><path d="m256 42.667969c-117.820312 0-213.332031 95.511719-213.332031 213.332031s95.511719 213.332031 213.332031 213.332031 213.332031-95.511719 213.332031-213.332031c-.128906-117.765625-95.566406-213.203125-213.332031-213.332031zm125.140625 62.292969c-11.054687-1.6875-22.222656-2.542969-33.40625-2.5625-27.167969-.058594-54.113281 4.921874-79.464844 14.6875-.21875.066406-.441406.136718-.65625.222656l-.210937.09375h-.085938c-21.09375 8.191406-40.804687 19.5625-58.453125 33.722656-.28125.179688-.554687.382812-.855469.597656-20.773437 16.90625-38.378906 37.367188-51.992187 60.433594-.402344-36.636719 8.996094-72.714844 27.21875-104.5 2.476563-4.265625 5.121094-8.53125 7.777344-12.527344 7.808593-11.441406 16.773437-22.054687 26.75-31.667968 57.929687-11.507813 117.960937 3.742187 163.378906 41.5zm-67.601563 73.242187c19.738282 26.320313 32.867188 56.996094 38.289063 89.445313-12.976563 30.160156-32.933594 56.804687-58.222656 77.746093-32.617188 3.863281-65.6875-.074219-96.484375-11.484375-19.804688-26.324218-32.949219-57.046875-38.316406-89.550781 12.964843-30.132813 32.871093-56.773437 58.09375-77.746094 32.675781-3.898437 65.808593.0625 96.640624 11.554688zm-126.847656-105.789063c-3.414062 4.265626-6.722656 8.679688-9.828125 13.253907-2.917969 4.410156-5.734375 8.90625-8.382812 13.496093-39.273438 68.414063-39.523438 152.476563-.664063 221.125-48.519531-27.21875-83.832031-73.058593-97.773437-126.914062 18.894531-55.703125 61.671875-100.058594 116.648437-120.960938zm-124.398437 152.0625c22.921875 57.03125 68.4375 102.023438 125.730469 124.28125h.050781c.207031.085938.402343.1875.605469.265626 25.101562 9.605468 51.722656 14.632812 78.601562 14.839843-9.738281 5.78125-19.933594 10.761719-30.480469 14.890625-23.597656 9.121094-48.683593 13.792969-73.984375 13.78125-5.34375 0-10.128906-.179687-14.738281-.574218-13.417969-1-26.710937-3.285157-39.695313-6.824219-38.632812-43.957031-55.542968-102.90625-46.089843-160.660157zm68.695312 182.71875c5.230469.75 10.476563 1.390626 15.742188 1.78125 4.992187.417969 10.238281.625 16.078125.625 27.410156.019532 54.585937-5.039062 80.152344-14.917968 46.835937-18.132813 86.171874-51.5625 111.617187-94.863282.699219 56.070313-21.722656 109.953126-61.996094 148.972657-57.375 10.960937-116.644531-4.300781-161.59375-41.597657zm192.1875 33.21875c56.769531-71.140624 64.496094-169.6875 19.503907-248.804687 9.621093 5.371094 18.789062 11.511719 27.417968 18.363281.242188.253906.503906.496094.777344.714844 19.71875 15.8125 36.304688 35.171875 48.90625 57.078125 2.480469 4.269531 4.804688 8.792969 6.980469 13.058594 6.179687 12.804687 11.011719 26.222656 14.410156 40.027343-19.539063 55.449219-62.804687 99.289063-117.988281 119.5625zm126.078125-150.441406c-2.210937-5.703125-4.566406-11.324218-7.226562-16.761718-2.371094-4.660157-4.832032-9.386719-7.457032-13.960938-13.484374-23.441406-31.175781-44.195312-52.191406-61.21875l-.085937-.058594-.066407-.058594c-.203124-.207031-.417968-.402343-.640624-.582031-17.957032-14.460937-38.070313-26.019531-59.605469-34.25-25.113281-9.679687-51.765625-14.742187-78.679688-14.945312 9.535157-5.695313 19.527344-10.59375 29.867188-14.640625.238281-.066406.472656-.148438.699219-.238282 41.625-16.097656 87.375-18.125 130.261718-5.777343 38.875 44.546875 55.472656 104.308593 45.140625 162.523437zm0 0"/></svg>